HIERARCHY
ROOT Hips
{
	OFFSET -3.958830 18.904000 13.208200
	CHANNELS 6 Xposition Yposition Zposition Zrotation Yrotation Xrotation 
	JOINT LHipJoint
	{
		OFFSET 0.000000 0.000000 0.000000
		CHANNELS 3 Zrotation Yrotation Xrotation
		JOINT LeftUpLeg
		{
			OFFSET 1.800000 -1.400000 0.085000
			CHANNELS 3 Zrotation Yrotation Xrotation
			JOINT LeftLeg
			{
				OFFSET 2.215000 -6.000000 0.000000
				CHANNELS 3 Zrotation Yrotation Xrotation
				JOINT LeftFoot
				{
					OFFSET 2.500000 -6.900000 0.000000
					CHANNELS 3 Zrotation Yrotation Xrotation
					JOINT LeftToeBase
					{
						OFFSET 0.200000 -0.500000 1.950000
						CHANNELS 3 Zrotation Yrotation Xrotation
						End Site
						{
							OFFSET 0.000000 0.000000 0.000000
						}
					}
				}
			}
		}
	}
	JOINT RHipJoint
	{
		OFFSET 0.000000 0.000000 0.000000
		CHANNELS 3 Zrotation Yrotation Xrotation
		JOINT RightUpLeg
		{
			OFFSET -1.800000 -1.400000 0.085000
			CHANNELS 3 Zrotation Yrotation Xrotation
			JOINT RightLeg
			{
				OFFSET -2.215000 -6.000000 0.000000
				CHANNELS 3 Zrotation Yrotation Xrotation
				JOINT RightFoot
				{
					OFFSET -2.500000 -6.900000 0.000000
					CHANNELS 3 Zrotation Yrotation Xrotation
					JOINT RightToeBase
					{
						OFFSET -0.200000 -0.500000 1.950000
						CHANNELS 3 Zrotation Yrotation Xrotation
						End Site
						{
							OFFSET 0.000000 0.000000 0.000000
						}
					}
				}
			}
		}
	}
	JOINT LowerBack
	{
		OFFSET 0.000000 0.000000 0.000000
		CHANNELS 3 Zrotation Yrotation Xrotation
		JOINT Spine
		{
			OFFSET -0.087000 1.940000 -0.288900
			CHANNELS 3 Zrotation Yrotation Xrotation
			JOINT Spine1
			{
				OFFSET 0.000000 1.950000 0.060000
				CHANNELS 3 Zrotation Yrotation Xrotation
				JOINT Neck
				{
					OFFSET 0.000000 0.000000 0.000000
					CHANNELS 3 Zrotation Yrotation Xrotation
					JOINT Neck1
					{
						OFFSET 0.000000 1.600000 0.340000
						CHANNELS 3 Zrotation Yrotation Xrotation
						JOINT Head
						{
							OFFSET 0.000000 1.667000 -0.240000
							CHANNELS 3 Zrotation Yrotation Xrotation
							End Site
							{
								OFFSET 0.000000 0.000000 0.000000
							}
						}
					}
				}
				JOINT LeftShoulder
				{
					OFFSET 0.000000 0.000000 0.000000
					CHANNELS 3 Zrotation Yrotation Xrotation
					JOINT LeftArm
					{
						OFFSET 2.700000 1.550000 -0.730000
						CHANNELS 3 Zrotation Yrotation Xrotation
						JOINT LeftForeArm
						{
							OFFSET 5.450000 0.000000 0.000000
							CHANNELS 3 Zrotation Yrotation Xrotation
							JOINT LeftHand
							{
								OFFSET 3.450000 0.000000 0.000000
								CHANNELS 3 Zrotation Yrotation Xrotation
								JOINT LeftHandIndex1
								{
									OFFSET 0.750000 0.000000 0.000000
									CHANNELS 3 Zrotation Yrotation Xrotation
									End Site
									{
										OFFSET 0.000000 0.000000 0.000000
									}
								}
							}
						}
					}
				}
				JOINT RightShoulder
				{
					OFFSET 0.000000 0.000000 0.000000
					CHANNELS 3 Zrotation Yrotation Xrotation
					JOINT RightArm
					{
						OFFSET -2.700000 1.550000 -0.730000
						CHANNELS 3 Zrotation Yrotation Xrotation
						JOINT RightForeArm
						{
							OFFSET -5.450000 0.000000 0.000000
							CHANNELS 3 Zrotation Yrotation Xrotation
							JOINT RightHand
							{
								OFFSET -3.450000 0.000000 0.000000
								CHANNELS 3 Zrotation Yrotation Xrotation
								JOINT RightHandIndex1
								{
									OFFSET -0.750000 0.000000 0.000000
									CHANNELS 3 Zrotation Yrotation Xrotation
									End Site
									{
										OFFSET 0.000000 0.000000 0.000000
									}
								}
							}
						}
					}
				}
			}
		}
	}
}
MOTION
Frames: 13
Frame Time: 0.016667
1.065870 17.022100 -1.696370 -5.939374 -12.174593 10.974682 -15.267307 13.398655 3.792808 -4.108632 -2.557541 -12.995811 -6.530169 3.212762 2.245833 -1.131696 3.540591 3.815104 0.511010 -0.222860 0.456110 17.929683 -10.975204 2.906622 -13.977131 0.270834 6.990107 6.843720 -6.751140 7.059901 -1.052931 -5.147900 2.909491 -0.141780 0.517330 0.519000 -2.716915 -2.306099 -8.485781 7.815618 5.214938 4.935335 0.546060 5.825498 -10.722076 3.874778 0.576256 -12.393649 -3.990474 2.835220 55.860299 -5.593190 3.110230 -14.516350 -21.441351 -7.956726 2.492317 12.077267 10.844995 2.055057 9.779346 -5.480155 -1.367821 -3.945172 2.319215 1.379700 0.159910 0.145500 0.378710 15.045974 9.582667 8.018018 -11.179453 -10.798497 -1.336678 -10.612920 3.626993 0.434547 1.910091 -0.968976 -0.484900 0.493890 0.094810 -0.431390 
1.065090 17.020150 -1.696690 -5.936018 -12.194252 10.914533 -15.264767 13.396534 3.787979 -4.107027 -2.543309 -12.932310 -6.504126 3.212786 2.256070 -1.125230 3.537941 3.815364 0.513750 -0.217210 0.454980 17.933639 -10.974173 2.906365 -14.008877 0.271122 7.011336 6.837175 -6.746994 7.029183 -1.054546 -5.152232 2.907652 -0.140740 0.516030 0.520310 -2.727036 -2.303881 -8.478845 7.862876 5.205301 4.951755 0.527994 5.814834 -10.543263 3.862214 0.517174 -12.408011 -4.113742 2.905292 55.791431 -5.543870 3.121900 -14.491050 -21.413658 -7.947627 2.515301 11.970297 10.896927 2.040163 9.831752 -5.506913 -1.363985 -3.941375 2.326431 1.376170 0.159190 0.147110 0.381050 15.034912 9.607424 8.049499 -11.103219 -10.846003 -1.335618 -10.696553 3.644373 0.432231 1.913366 -0.974640 -0.480300 0.490100 0.091070 -0.427790 
1.064090 17.018250 -1.696810 -5.925489 -12.209966 10.858540 -15.263504 13.392400 3.784160 -4.106454 -2.528449 -12.864093 -6.500549 3.212578 2.235741 -1.119152 3.536811 3.815364 0.517030 -0.212030 0.454870 17.936687 -10.972699 2.905426 -14.045671 0.273015 7.032625 6.829073 -6.743452 6.995422 -1.056567 -5.156493 2.906723 -0.140080 0.513970 0.521640 -2.734103 -2.299619 -8.472199 7.883745 5.200850 4.956437 0.519582 5.802983 -10.361658 3.857183 0.476458 -12.432412 -4.200465 2.954739 55.740644 -5.522560 3.139340 -14.483930 -21.373741 -7.951655 2.549956 11.851113 10.955972 2.024720 9.885698 -5.532592 -1.360713 -3.937492 2.332577 1.374050 0.158260 0.148890 0.383340 15.001022 9.633035 8.085523 -11.028928 -10.935860 -1.325946 -10.724488 3.706580 0.430383 1.914589 -0.979928 -0.476020 0.486250 0.087120 -0.425380 
1.063290 17.016440 -1.697040 -5.926737 -12.209550 10.801055 -15.261692 13.388191 3.780404 -4.098063 -2.511398 -12.792893 -6.496313 3.210373 2.196563 -1.110652 3.533645 3.815380 0.520540 -0.205690 0.456030 17.940473 -10.971279 2.904487 -14.065902 0.270269 7.059722 6.815579 -6.739088 6.969144 -1.059560 -5.159954 2.904169 -0.139990 0.510120 0.523680 -2.743366 -2.295109 -8.465702 7.925130 5.188396 4.966091 0.496166 5.785408 -10.171727 3.857452 0.458415 -12.452880 -4.233999 2.979983 55.680444 -5.526950 3.170920 -14.496710 -21.339231 -7.963498 2.588172 11.744680 11.025382 2.008627 9.955834 -5.563849 -1.355706 -3.933041 2.340940 1.370570 0.156460 0.151870 0.384340 14.955193 9.650239 8.114629 -10.964478 -11.026491 -1.309033 -10.689620 3.790369 0.426925 1.917176 -0.985706 -0.469500 0.480590 0.082720 -0.422480 
1.062510 17.014740 -1.697070 -5.939724 -12.196903 10.745484 -15.259185 13.385502 3.777287 -4.080233 -2.492904 -12.718280 -6.493734 3.206945 2.142131 -1.106265 3.534737 3.814364 0.523170 -0.202190 0.456930 17.944830 -10.968936 2.903808 -14.071968 0.265310 7.093427 6.803425 -6.737637 6.946070 -1.062183 -5.163563 2.902584 -0.140140 0.508160 0.525640 -2.754797 -2.294968 -8.460317 7.998269 5.166401 4.974976 0.460617 5.763632 -9.991767 3.857726 0.433324 -12.475735 -4.286709 3.019595 55.655478 -5.518510 3.195620 -14.532960 -21.309341 -7.973576 2.628436 11.628745 11.099673 1.996783 10.054895 -5.581555 -1.354653 -3.930206 2.345768 1.370310 0.155270 0.154040 0.385370 14.910475 9.670260 8.139017 -10.908553 -11.106097 -1.296418 -10.625269 3.903861 0.424270 1.916899 -0.988973 -0.466100 0.477210 0.080160 -0.421010 
1.061290 17.013120 -1.696930 -5.943947 -12.183717 10.696861 -15.258118 13.382406 3.774806 -4.077205 -2.476684 -12.648129 -6.473753 3.199131 2.078577 -1.102429 3.534670 3.813464 0.524510 -0.199480 0.454910 17.947846 -10.966415 2.903297 -14.073979 0.261049 7.125052 6.781120 -6.731671 6.914213 -1.063706 -5.166433 2.902319 -0.139350 0.506520 0.526840 -2.762024 -2.294425 -8.455579 8.034529 5.146657 4.975858 0.445470 5.740434 -9.840550 3.855849 0.403745 -12.494063 -4.347056 3.066613 55.635360 -5.497470 3.216630 -14.521360 -21.278861 -7.975828 2.661599 11.531348 11.176309 1.989920 10.138958 -5.610058 -1.352492 -3.928363 2.351059 1.368760 0.154870 0.155190 0.387120 14.876787 9.686551 8.158542 -10.865683 -11.177862 -1.283637 -10.571172 4.007806 0.423073 1.915323 -0.992323 -0.463430 0.474450 0.078760 -0.419720 
1.060030 17.011620 -1.696720 -5.948262 -12.164201 10.649894 -15.257092 13.379433 3.772329 -4.067977 -2.460976 -12.580825 -6.466922 3.193601 2.020202 -1.095947 3.534401 3.812586 0.527640 -0.194850 0.455080 17.950726 -10.963904 2.902763 -14.075532 0.255739 7.156592 6.767133 -6.727142 6.889526 -1.066213 -5.169466 2.900552 -0.138320 0.503990 0.529390 -2.769064 -2.294196 -8.450838 8.066526 5.121043 4.975102 0.433635 5.710783 -9.695938 3.850774 0.366473 -12.506660 -4.423944 3.116210 55.607931 -5.461850 3.229900 -14.510930 -21.248468 -7.969521 2.690587 11.440416 11.253463 1.981779 10.234612 -5.639755 -1.349275 -3.925174 2.358431 1.366270 0.153760 0.157910 0.389320 14.850663 9.699927 8.172640 -10.834492 -11.229536 -1.270999 -10.520747 4.091347 0.420743 1.916350 -0.997045 -0.458790 0.470190 0.075210 -0.417280 
1.058930 17.010390 -1.696280 -5.968178 -12.155138 10.609855 -15.255823 13.378482 3.770702 -4.046893 -2.442978 -12.515738 -6.462801 3.188365 1.953442 -1.090355 3.533600 3.811583 0.529800 -0.190120 0.455090 17.953283 -10.962057 2.902125 -14.062810 0.248271 7.177614 6.749312 -6.721572 6.880357 -1.067556 -5.170237 2.899477 -0.136700 0.500640 0.529940 -2.775524 -2.295571 -8.447972 8.115759 5.098802 4.983871 0.415358 5.689540 -9.596154 3.853667 0.344216 -12.509529 -4.466015 3.154080 55.599343 -5.453750 3.259190 -14.504690 -21.228969 -7.955812 2.708696 11.384545 11.330231 1.978396 10.313265 -5.674155 -1.344198 -3.921884 2.364236 1.363620 0.152520 0.160030 0.390070 14.817088 9.702813 8.172291 -10.851176 -11.284724 -1.246068 -10.380957 4.208684 0.417005 1.916278 -1.000712 -0.455200 0.466640 0.072120 -0.415640 
1.057990 17.009410 -1.695540 -5.993284 -12.151382 10.576707 -15.254377 13.378001 3.769514 -4.026686 -2.424206 -12.449539 -6.450419 3.181225 1.880467 -1.085732 3.532122 3.810348 0.530700 -0.186650 0.454180 17.955706 -10.960645 2.901757 -14.050956 0.241638 7.191550 6.735787 -6.718228 6.871832 -1.069184 -5.170524 2.897675 -0.136840 0.498020 0.530700 -2.781839 -2.296564 -8.446262 8.168986 5.081581 4.979717 0.396331 5.673154 -9.516549 3.858120 0.338309 -12.523725 -4.478897 3.187276 55.650218 -5.450800 3.298540 -14.496590 -21.212236 -7.957402 2.733427 11.345947 11.430201 1.979751 10.379099 -5.729164 -1.339985 -3.918482 2.370759 1.361940 0.150950 0.161940 0.389950 14.783331 9.708736 8.175930 -10.861959 -11.342196 -1.225096 -10.255548 4.309589 0.414782 1.916526 -1.003036 -0.451590 0.463210 0.071040 -0.413850 
1.057090 17.008590 -1.694270 -6.024174 -12.142732 10.555744 -15.253023 13.377891 3.769055 -4.000311 -2.406099 -12.386347 -6.440328 3.172183 1.794390 -1.084157 3.533480 3.808697 0.531820 -0.184760 0.453650 17.957768 -10.958850 2.902130 -14.034291 0.235724 7.202216 6.731380 -6.716766 6.856821 -1.070386 -5.171145 2.897216 -0.136530 0.496280 0.531890 -2.787477 -2.298328 -8.446379 8.226481 5.066124 4.964624 0.374468 5.660372 -9.479213 3.864820 0.345119 -12.537117 -4.466818 3.214108 55.743439 -5.448390 3.335520 -14.480170 -21.200969 -7.959853 2.752003 11.335568 11.519214 1.987637 10.426412 -5.775885 -1.337986 -3.916441 2.374580 1.362480 0.150520 0.163250 0.390140 14.750629 9.706421 8.173793 -10.869637 -11.402183 -1.204618 -10.116418 4.452646 0.413655 1.913594 -1.004764 -0.450010 0.460670 0.070400 -0.413690 
1.055940 17.007670 -1.692760 -6.043499 -12.141001 10.538499 -15.253384 13.376165 3.768479 -3.982819 -2.388703 -12.317438 -6.423240 3.161107 1.701554 -1.081239 3.533701 3.807103 0.533610 -0.182230 0.454620 17.958368 -10.957551 2.902043 -14.025502 0.231560 7.206264 6.730736 -6.715088 6.842479 -1.071762 -5.171346 2.895795 -0.136050 0.493280 0.533550 -2.788221 -2.296204 -8.445731 8.235755 5.061098 4.939648 0.376795 5.650337 -9.451431 3.872932 0.364876 -12.544271 -4.422784 3.222504 55.824888 -5.452370 3.373290 -14.467960 -21.179771 -7.954972 2.766166 11.331689 11.591698 1.993944 10.478194 -5.813775 -1.335118 -3.914328 2.379349 1.362170 0.149520 0.165350 0.390010 14.711956 9.688938 8.166752 -10.867905 -11.453877 -1.184943 -9.995021 4.587035 0.412742 1.912116 -1.007281 -0.447390 0.457120 0.068900 -0.413480 
1.054930 17.006410 -1.691470 -6.057238 -12.144571 10.509347 -15.253475 13.373518 3.767649 -3.971884 -2.368854 -12.231092 -6.406945 3.150988 1.604540 -1.077487 3.533875 3.805621 0.536600 -0.178360 0.457220 17.959632 -10.956604 2.900707 -14.025880 0.228079 7.214603 6.726707 -6.714809 6.840426 -1.073443 -5.171701 2.894651 -0.135340 0.489520 0.534520 -2.790458 -2.292755 -8.443132 8.242900 5.051881 4.919161 0.375848 5.635295 -9.383549 3.875787 0.376054 -12.547864 -4.394955 3.238292 55.879712 -5.451880 3.415230 -14.501060 -21.156355 -7.951771 2.782961 11.338095 11.667681 2.000134 10.538618 -5.828535 -1.332172 -3.911540 2.383933 1.361730 0.147820 0.167640 0.389650 14.679308 9.674708 8.160246 -10.857143 -11.482088 -1.172460 -9.916722 4.701398 0.411258 1.911584 -1.009707 -0.444220 0.453860 0.066530 -0.413450 
1.053970 17.005310 -1.690060 -6.064878 -12.151882 10.477664 -15.254338 13.371059 3.767479 -3.961236 -2.348018 -12.136752 -6.401497 3.141932 1.501076 -1.073702 3.536298 3.803799 0.540460 -0.174250 0.460670 17.960121 -10.955638 2.898728 -14.025434 0.225926 7.221864 6.708902 -6.711921 6.842243 -1.075446 -5.171492 2.893389 -0.134260 0.486080 0.536140 -2.790307 -2.289927 -8.440757 8.233104 5.041298 4.895855 0.385249 5.617207 -9.327903 3.877260 0.383573 -12.543835 -4.374075 3.261864 55.943265 -5.449880 3.459770 -14.529630 -21.142994 -7.942224 2.794687 11.365905 11.746146 2.010650 10.614938 -5.827758 -1.329920 -3.908865 2.388815 1.361740 0.146250 0.170200 0.389940 14.662873 9.657192 8.143947 -10.869800 -11.489218 -1.161948 -9.849737 4.815228 0.409166 1.910885 -1.012774 -0.441190 0.450720 0.063630 -0.413490 
